<mxfile host="app.diagrams.net" modified="2023-06-10T17:25:46.911Z" agent="Mozilla/5.0 (Windows NT 10.0; Win64; x64) AppleWebKit/537.36 (KHTML, like Gecko) Chrome/114.0.0.0 Safari/537.36" etag="v4hRZuR5wO-rwrvnD2yx" version="21.3.8" type="device">
  <diagram id="R2lEEEUBdFMjLlhIrx00" name="Page-1">
    <mxGraphModel dx="1050" dy="483" grid="1" gridSize="10" guides="1" tooltips="1" connect="1" arrows="1" fold="1" page="1" pageScale="1" pageWidth="850" pageHeight="1100" math="0" shadow="0" extFonts="Permanent Marker^https://fonts.googleapis.com/css?family=Permanent+Marker">
      <root>
        <mxCell id="0" />
        <mxCell id="1" parent="0" />
        <mxCell id="cukVlatbzaXCvt38CcIX-31" value="proveedores" style="swimlane;childLayout=stackLayout;horizontal=1;startSize=30;horizontalStack=0;rounded=1;fontSize=14;fontStyle=0;strokeWidth=2;resizeParent=0;resizeLast=1;shadow=0;dashed=0;align=center;" parent="1" vertex="1">
          <mxGeometry x="40" y="270" width="200" height="250" as="geometry">
            <mxRectangle x="50" y="40" width="80" height="30" as="alternateBounds" />
          </mxGeometry>
        </mxCell>
        <mxCell id="cukVlatbzaXCvt38CcIX-32" value="  id_proveedor: Integer &#xa;  nombre: String&#xa;  direccion[{&#xa;            calle: String&#xa;            numero: Integer&#xa;            piso: Integer&#xa;            puerta: String&#xa;            ciudad: String&#xa;            codigo_postal: Integer&#xa;            pais: String&#xa;  }]&#xa;  telefono: Integer&#xa;  fax: Integer&#xa;  nif: String" style="align=left;strokeColor=none;fillColor=none;spacingLeft=4;fontSize=12;verticalAlign=top;resizable=0;rotatable=0;part=1;" parent="cukVlatbzaXCvt38CcIX-31" vertex="1">
          <mxGeometry y="30" width="200" height="220" as="geometry" />
        </mxCell>
        <mxCell id="cukVlatbzaXCvt38CcIX-36" value="marcas" style="swimlane;childLayout=stackLayout;horizontal=1;startSize=30;horizontalStack=0;rounded=1;fontSize=14;fontStyle=0;strokeWidth=2;resizeParent=0;resizeLast=1;shadow=0;dashed=0;align=center;" parent="1" vertex="1">
          <mxGeometry x="40" y="100" width="200" height="120" as="geometry" />
        </mxCell>
        <mxCell id="cukVlatbzaXCvt38CcIX-37" value="id_marca: Integer&#xa;nombre: String&#xa;descripcion: String&#xa;logo: BinData&#xa;proveedor_id: ObjectID&#xa;" style="align=left;strokeColor=none;fillColor=none;spacingLeft=4;fontSize=12;verticalAlign=top;resizable=0;rotatable=0;part=1;" parent="cukVlatbzaXCvt38CcIX-36" vertex="1">
          <mxGeometry y="30" width="200" height="90" as="geometry" />
        </mxCell>
        <mxCell id="cukVlatbzaXCvt38CcIX-38" value="gafas" style="swimlane;childLayout=stackLayout;horizontal=1;startSize=30;horizontalStack=0;rounded=1;fontSize=14;fontStyle=0;strokeWidth=2;resizeParent=0;resizeLast=1;shadow=0;dashed=0;align=center;" parent="1" vertex="1">
          <mxGeometry x="320" y="100" width="200" height="290" as="geometry">
            <mxRectangle x="380" y="5" width="70" height="30" as="alternateBounds" />
          </mxGeometry>
        </mxCell>
        <mxCell id="cukVlatbzaXCvt38CcIX-39" value="id_gafas: Integer&#xa;marca_id: ObjectID&#xa;graduacion[{&#xa;            lente_derecha: double&#xa;            lente_izquierda: double&#xa;}]&#xa;tipo_montura: [{&#xa;            flotante&#xa;            plastico&#xa;            metalico&#xa;}]&#xa;color_montura: String&#xa;color_cada_vidrio: [{&#xa;            lente_derecha: String&#xa;            lente_izquierda: String&#xa;}]&#xa;precio: double" style="align=left;strokeColor=none;fillColor=none;spacingLeft=4;fontSize=12;verticalAlign=top;resizable=0;rotatable=0;part=1;" parent="cukVlatbzaXCvt38CcIX-38" vertex="1">
          <mxGeometry y="30" width="200" height="260" as="geometry" />
        </mxCell>
        <mxCell id="cukVlatbzaXCvt38CcIX-47" value="clientes" style="swimlane;childLayout=stackLayout;horizontal=1;startSize=30;horizontalStack=0;rounded=1;fontSize=14;fontStyle=0;strokeWidth=2;resizeParent=0;resizeLast=1;shadow=0;dashed=0;align=center;" parent="1" vertex="1">
          <mxGeometry x="600" y="100" width="200" height="260" as="geometry" />
        </mxCell>
        <mxCell id="cukVlatbzaXCvt38CcIX-48" value="id_cliente: Integer&#xa;nombre: String&#xa;direccion[{&#xa;            calle: String&#xa;            numero: Integer&#xa;            piso: Integer&#xa;            puerta: String&#xa;            ciudad: String&#xa;            codigo_postal: Integer&#xa;            pais: String&#xa;  }]&#xa;telefono: Integer&#xa;email: String&#xa;fecha_registro: Date()&#xa;cliente_recomendador_id: ObjectID" style="align=left;strokeColor=none;fillColor=none;spacingLeft=4;fontSize=12;verticalAlign=top;resizable=0;rotatable=0;part=1;" parent="cukVlatbzaXCvt38CcIX-47" vertex="1">
          <mxGeometry y="30" width="200" height="230" as="geometry" />
        </mxCell>
        <mxCell id="cukVlatbzaXCvt38CcIX-52" value="ventas" style="swimlane;childLayout=stackLayout;horizontal=1;startSize=30;horizontalStack=0;rounded=1;fontSize=14;fontStyle=0;strokeWidth=2;resizeParent=0;resizeLast=1;shadow=0;dashed=0;align=center;" parent="1" vertex="1">
          <mxGeometry x="600" y="380" width="200" height="140" as="geometry">
            <mxRectangle x="680" y="15" width="80" height="30" as="alternateBounds" />
          </mxGeometry>
        </mxCell>
        <mxCell id="cukVlatbzaXCvt38CcIX-53" value="id_venta: Integer&#xa;numero_orden_venta: Integer&#xa;gafas_id: ObjectID&#xa;cliente_id: ObjectID&#xa;empleado_vendedor_id: ObjectID&#xa;fecha_venta: Date()&#xa;" style="align=left;strokeColor=none;fillColor=none;spacingLeft=4;fontSize=12;verticalAlign=top;resizable=0;rotatable=0;part=1;" parent="cukVlatbzaXCvt38CcIX-52" vertex="1">
          <mxGeometry y="30" width="200" height="110" as="geometry" />
        </mxCell>
        <mxCell id="cukVlatbzaXCvt38CcIX-65" value="empleados" style="swimlane;childLayout=stackLayout;horizontal=1;startSize=30;horizontalStack=0;rounded=1;fontSize=14;fontStyle=0;strokeWidth=2;resizeParent=0;resizeLast=1;shadow=0;dashed=0;align=center;" parent="1" vertex="1">
          <mxGeometry x="320" y="430" width="200" height="90" as="geometry">
            <mxRectangle x="380" y="160" width="100" height="30" as="alternateBounds" />
          </mxGeometry>
        </mxCell>
        <mxCell id="cukVlatbzaXCvt38CcIX-66" value="id_empleado: Integer&#xa;nombre: String" style="align=left;strokeColor=none;fillColor=none;spacingLeft=4;fontSize=12;verticalAlign=top;resizable=0;rotatable=0;part=1;" parent="cukVlatbzaXCvt38CcIX-65" vertex="1">
          <mxGeometry y="30" width="200" height="60" as="geometry" />
        </mxCell>
        <mxCell id="1faDFLqwwvK5krKil411-3" value="Text" style="text;strokeColor=none;align=center;fillColor=none;html=1;verticalAlign=middle;whiteSpace=wrap;rounded=0;" vertex="1" parent="1">
          <mxGeometry x="390" y="290" width="60" height="30" as="geometry" />
        </mxCell>
        <mxCell id="1faDFLqwwvK5krKil411-4" value="Óptica" style="text;html=1;align=center;verticalAlign=middle;resizable=0;points=[];autosize=1;strokeColor=none;fillColor=none;" vertex="1" parent="1">
          <mxGeometry x="395" y="48" width="60" height="30" as="geometry" />
        </mxCell>
      </root>
    </mxGraphModel>
  </diagram>
</mxfile>
